<svg width="914" height="400" fill="none" xmlns="http://www.w3.org/2000/svg"><path fill="#fff" d="M0 0h914v400H0z"/><path d="M379.062 197h-5.072l-3.049-5.045a17.141 17.141 0 0 0-.656-1.025 5.098 5.098 0 0 0-.643-.766 2.205 2.205 0 0 0-.67-.492 1.598 1.598 0 0 0-.752-.178h-1.189V197h-4.416v-19.605h7c4.758 0 7.137 1.777 7.137 5.332a5.57 5.57 0 0 1-.315 1.9 5.294 5.294 0 0 1-.889 1.559 5.598 5.598 0 0 1-1.394 1.203 7.063 7.063 0 0 1-1.805.793v.054c.292.091.574.242.848.452.273.2.538.437.793.71.255.274.497.57.724.889.237.31.452.615.643.916l3.705 5.797Zm-12.031-16.297v5.455h1.914c.948 0 1.709-.273 2.283-.82.583-.556.875-1.244.875-2.065 0-1.713-1.025-2.57-3.076-2.57h-1.996Zm24.76 10.527h-9.133c.146 2.033 1.427 3.049 3.842 3.049 1.541 0 2.894-.364 4.061-1.093v3.117c-1.295.692-2.976 1.039-5.045 1.039-2.261 0-4.015-.625-5.264-1.873-1.249-1.258-1.873-3.008-1.873-5.25 0-2.324.675-4.166 2.023-5.524 1.349-1.358 3.008-2.037 4.977-2.037 2.042 0 3.619.606 4.731 1.819 1.121 1.212 1.681 2.857 1.681 4.935v1.818Zm-4.006-2.652c0-2.005-.811-3.008-2.433-3.008-.693 0-1.295.287-1.805.862-.501.574-.807 1.289-.916 2.146h5.154ZM416.032 197h-4.307v-7.984c0-2.033-.747-3.049-2.242-3.049-.711 0-1.29.305-1.736.916-.447.61-.67 1.372-.67 2.283V197h-4.32v-8.066c0-1.978-.734-2.967-2.202-2.967-.738 0-1.33.291-1.777.875-.437.583-.656 1.376-.656 2.379V197h-4.321v-14h4.321v2.188h.054c.447-.748 1.071-1.354 1.874-1.819a5.163 5.163 0 0 1 2.652-.711c1.978 0 3.331.871 4.06 2.612 1.067-1.741 2.635-2.612 4.704-2.612 3.044 0 4.566 1.878 4.566 5.633V197Zm5.045-16.215c-.729 0-1.326-.214-1.791-.642a2.118 2.118 0 0 1-.697-1.6c0-.647.233-1.176.697-1.586.465-.41 1.062-.615 1.791-.615.739 0 1.336.205 1.791.615.465.41.698.939.698 1.586 0 .656-.233 1.194-.698 1.613-.455.42-1.052.629-1.791.629ZM423.21 197h-4.32v-14h4.32v14Zm16.598-14-4.621 6.781 4.594 7.219h-4.976l-2.024-3.773c-.164-.301-.36-.725-.588-1.272h-.054a8.936 8.936 0 0 1-.561 1.231L429.541 197h-4.963l4.73-6.973-4.443-7.027h5.004l1.996 3.924c.264.519.451.957.561 1.312h.054c.146-.428.342-.875.588-1.34l2.037-3.896h4.703Zm13.481 8.23h-9.132c.145 2.033 1.426 3.049 3.841 3.049 1.541 0 2.894-.364 4.061-1.093v3.117c-1.294.692-2.976 1.039-5.045 1.039-2.26 0-4.015-.625-5.264-1.873-1.248-1.258-1.873-3.008-1.873-5.25 0-2.324.675-4.166 2.024-5.524 1.349-1.358 3.008-2.037 4.976-2.037 2.042 0 3.619.606 4.731 1.819 1.121 1.212 1.681 2.857 1.681 4.935v1.818Zm-4.005-2.652c0-2.005-.812-3.008-2.434-3.008-.693 0-1.294.287-1.805.862-.501.574-.806 1.289-.916 2.146h5.155ZM468.999 197h-4.32v-1.928h-.055c-.984 1.513-2.429 2.27-4.334 2.27-1.75 0-3.158-.615-4.225-1.846-1.066-1.239-1.599-2.967-1.599-5.182 0-2.315.588-4.169 1.763-5.564 1.176-1.395 2.717-2.092 4.622-2.092 1.804 0 3.062.647 3.773 1.942h.055v-8.327h4.32V197Zm-4.238-6.809v-1.052c0-.912-.265-1.668-.793-2.27-.529-.601-1.217-.902-2.065-.902-.957 0-1.704.378-2.242 1.135-.538.747-.807 1.777-.807 3.089 0 1.231.26 2.179.78 2.844.519.666 1.239.998 2.16.998.875 0 1.586-.351 2.133-1.053.556-.701.834-1.631.834-2.789Zm17.005-11.129V197h-1.819v-17.938h-5.646v-1.667h13.125v1.667h-5.66ZM499.253 197v-8.23c0-1.568-.283-2.721-.848-3.459-.565-.748-1.445-1.122-2.639-1.122a3.931 3.931 0 0 0-2.953 1.327c-.383.428-.688.952-.916 1.572-.228.611-.342 1.303-.342 2.078V197h-1.75v-20.727h1.75v9.147h.055c1.094-1.832 2.662-2.748 4.703-2.748 1.559 0 2.73.478 3.514 1.435.784.957 1.176 2.37 1.176 4.239V197h-1.75Zm6.248-6.686c.009.857.123 1.627.342 2.311.219.684.533 1.262.943 1.736a4.14 4.14 0 0 0 1.491 1.094c.592.246 1.257.369 1.996.369 1.577 0 3.067-.551 4.47-1.654v1.723c-1.339.957-2.962 1.435-4.867 1.435-.939 0-1.791-.164-2.556-.492a5.322 5.322 0 0 1-1.955-1.422c-.538-.629-.953-1.399-1.245-2.31-.291-.912-.437-1.951-.437-3.118 0-1.048.159-2.019.478-2.912.319-.893.761-1.663 1.327-2.31a5.995 5.995 0 0 1 2.009-1.532 5.788 5.788 0 0 1 2.543-.56c.903 0 1.7.159 2.393.478.693.31 1.271.757 1.736 1.34.474.584.834 1.295 1.08 2.133.246.839.369 1.777.369 2.816v.875h-10.117Zm8.313-1.531c-.028-1.458-.374-2.588-1.039-3.39-.666-.803-1.591-1.204-2.776-1.204-.592 0-1.144.105-1.654.315-.501.21-.943.515-1.326.916a4.886 4.886 0 0 0-.957 1.449 7.38 7.38 0 0 0-.52 1.914h8.272ZM536.086 197v-8.23c0-.839-.064-1.545-.192-2.12-.127-.583-.328-1.057-.601-1.421a2.256 2.256 0 0 0-1.026-.793c-.41-.165-.902-.247-1.476-.247-.511 0-.994.123-1.449.37a3.79 3.79 0 0 0-1.204.998 4.956 4.956 0 0 0-.806 1.49 5.827 5.827 0 0 0-.287 1.859V197h-1.75v-8.408c0-2.935-1.126-4.403-3.377-4.403-.52 0-1.003.119-1.449.356a3.595 3.595 0 0 0-1.176.971 4.878 4.878 0 0 0-.78 1.517 6.505 6.505 0 0 0-.273 1.942V197h-1.75v-14h1.75v2.27h.055c.984-1.732 2.42-2.598 4.306-2.598.493 0 .957.077 1.395.232.437.146.829.356 1.176.629.346.265.642.584.888.957.256.374.447.784.575 1.231.492-.994 1.13-1.75 1.914-2.27.793-.519 1.686-.779 2.679-.779 3.072 0 4.608 1.896 4.608 5.687V197h-1.75Zm6.248-6.686c.009.857.123 1.627.342 2.311.219.684.533 1.262.944 1.736.41.474.906.839 1.49 1.094.592.246 1.258.369 1.996.369 1.577 0 3.067-.551 4.471-1.654v1.723c-1.34.957-2.963 1.435-4.868 1.435-.938 0-1.791-.164-2.556-.492a5.322 5.322 0 0 1-1.955-1.422c-.538-.629-.953-1.399-1.245-2.31-.291-.912-.437-1.951-.437-3.118 0-1.048.159-2.019.479-2.912.319-.893.761-1.663 1.326-2.31a5.995 5.995 0 0 1 2.009-1.532 5.788 5.788 0 0 1 2.543-.56c.903 0 1.7.159 2.393.478.693.31 1.271.757 1.736 1.34.474.584.834 1.295 1.08 2.133.246.839.37 1.777.37 2.816v.875h-10.118Zm8.313-1.531c-.027-1.458-.374-2.588-1.039-3.39-.666-.803-1.591-1.204-2.776-1.204-.592 0-1.143.105-1.654.315-.501.21-.943.515-1.326.916a4.886 4.886 0 0 0-.957 1.449 7.38 7.38 0 0 0-.52 1.914h8.272Z" fill="#333"/><path d="M381.445 213.914c-.192-.151-.484-.226-.875-.226-.984 0-1.476.661-1.476 1.984V217h2.117v.656h-2.117V225h-.719v-7.344h-1.437V217h1.437v-1.391c0-.843.211-1.484.633-1.921.427-.438.958-.657 1.594-.657.338 0 .619.05.843.149v.734Zm4.133 11.281c-1.167 0-2.091-.383-2.773-1.148-.677-.771-1.016-1.771-1.016-3 0-1.328.354-2.367 1.063-3.117.713-.75 1.651-1.125 2.812-1.125 1.141 0 2.042.372 2.703 1.117.662.745.992 1.776.992 3.094 0 1.244-.338 2.252-1.015 3.023-.672.771-1.594 1.156-2.766 1.156Zm.055-7.734c-.943 0-1.695.318-2.258.953-.557.635-.836 1.518-.836 2.648 0 1.047.273 1.889.82 2.524.547.635 1.295.953 2.243.953.963 0 1.705-.312 2.226-.937.521-.625.781-1.493.781-2.602 0-1.141-.26-2.016-.781-2.625-.516-.609-1.247-.914-2.195-.914Zm9.492.289a1.41 1.41 0 0 0-.844-.258c-.63 0-1.159.326-1.586.977-.427.651-.64 1.575-.64 2.773V225h-.703v-8h.703v1.773h.031c.182-.609.471-1.083.867-1.421a2.05 2.05 0 0 1 1.375-.508c.297 0 .563.047.797.14v.766Zm8.422 3.391c0 2.703-.938 4.054-2.813 4.054-.291 0-.575-.039-.851-.117v-.75c.307.104.596.156.867.156.719 0 1.237-.27 1.555-.812.317-.547.476-1.396.476-2.547v-7.328h.766v7.344Zm2.82 3.859v-11.203h.774V225h-.774Zm9.391 0-1.492-3.281c-.308-.677-.615-1.13-.922-1.36-.308-.234-.693-.351-1.156-.351h-1.391V225h-.774v-11.203h3.11c.989 0 1.765.268 2.328.805.568.531.851 1.234.851 2.109 0 .807-.231 1.482-.695 2.023-.463.542-1.112.891-1.945 1.047v.031c.443.178.875.717 1.297 1.618l1.664 3.57h-.875Zm-4.961-10.492v4.797h1.93c.854 0 1.531-.224 2.031-.672.505-.448.758-1.063.758-1.844 0-.713-.227-1.271-.68-1.672-.453-.406-1.102-.609-1.945-.609h-2.094ZM426.211 225l-1.281-3.484h-4.86L418.789 225h-.851l4.226-11.203h.734l4.18 11.203h-.867Zm-3.438-9.375a4.153 4.153 0 0 1-.14-.461 15.66 15.66 0 0 0-.117-.391h-.032a7.48 7.48 0 0 1-.257.836l-1.883 5.196h4.32l-1.891-5.18ZM437.992 225v-1.602h-.031a3.154 3.154 0 0 1-1.117 1.313 2.854 2.854 0 0 1-1.617.484c-.761 0-1.362-.213-1.805-.64-.443-.427-.664-.966-.664-1.617 0-1.396.924-2.24 2.773-2.532l2.461-.367c0-1.719-.646-2.578-1.937-2.578-.881 0-1.737.354-2.571 1.062v-.867c.297-.234.698-.435 1.204-.601.51-.167.989-.25 1.437-.25.823 0 1.458.255 1.906.765.453.511.68 1.253.68 2.227V225h-.719Zm-2.203-3.984c-.838.119-1.427.315-1.766.586-.338.265-.507.7-.507 1.304 0 .474.156.865.468 1.172.318.307.758.461 1.321.461.771 0 1.411-.284 1.922-.851.51-.573.765-1.31.765-2.211v-.782l-2.203.321ZM446.555 225v-4.656c0-1.922-.693-2.883-2.078-2.883-.771 0-1.404.284-1.899.851-.495.563-.742 1.261-.742 2.094V225h-.719v-8h.719v1.453h.031c.584-1.099 1.495-1.648 2.735-1.648.864 0 1.526.289 1.984.867.458.573.687 1.393.687 2.461V225h-.718Zm8.804 0v-1.453h-.031a2.92 2.92 0 0 1-1.156 1.203 3.371 3.371 0 0 1-1.727.445c-.984 0-1.789-.359-2.414-1.078-.62-.719-.929-1.711-.929-2.976 0-1.292.338-2.336 1.015-3.133.682-.802 1.565-1.203 2.649-1.203 1.198 0 2.052.492 2.562 1.476h.031v-5.125h.719V225h-.719Zm0-4.867c0-.745-.237-1.375-.711-1.891-.468-.521-1.101-.781-1.898-.781-.839 0-1.531.323-2.078.969-.547.64-.82 1.523-.82 2.648 0 1.104.244 1.958.734 2.563.495.599 1.13.898 1.906.898.912 0 1.617-.281 2.117-.844.5-.567.75-1.257.75-2.07v-1.492Zm15.282 4.5a7.35 7.35 0 0 1-2.836.562c-1.532 0-2.782-.513-3.75-1.539-.964-1.031-1.446-2.375-1.446-4.031 0-1.818.524-3.273 1.571-4.367 1.047-1.099 2.377-1.649 3.992-1.649.859 0 1.682.138 2.469.414v.821a5.99 5.99 0 0 0-2.485-.532c-1.406 0-2.549.477-3.429 1.43-.881.953-1.321 2.222-1.321 3.805 0 1.526.42 2.732 1.258 3.617.844.88 1.912 1.32 3.203 1.32 1.031 0 1.956-.2 2.774-.601v.75Zm5.547.562c-1.167 0-2.092-.383-2.774-1.148-.677-.771-1.016-1.771-1.016-3 0-1.328.355-2.367 1.063-3.117.713-.75 1.651-1.125 2.812-1.125 1.141 0 2.042.372 2.704 1.117.661.745.992 1.776.992 3.094 0 1.244-.339 2.252-1.016 3.023-.672.771-1.594 1.156-2.765 1.156Zm.054-7.734c-.943 0-1.695.318-2.258.953-.557.635-.836 1.518-.836 2.648 0 1.047.274 1.889.821 2.524.547.635 1.294.953 2.242.953.963 0 1.706-.312 2.227-.937.52-.625.781-1.493.781-2.602 0-1.141-.261-2.016-.781-2.625-.516-.609-1.248-.914-2.196-.914ZM487.398 225v-4.656c0-1.922-.692-2.883-2.078-2.883-.771 0-1.403.284-1.898.851-.495.563-.742 1.261-.742 2.094V225h-.719v-8h.719v1.453h.031c.583-1.099 1.495-1.648 2.734-1.648.865 0 1.526.289 1.985.867.458.573.687 1.393.687 2.461V225h-.719Zm6.625-11.086c-.192-.151-.484-.226-.875-.226-.984 0-1.476.661-1.476 1.984V217h2.117v.656h-2.117V225h-.719v-7.344h-1.437V217h1.437v-1.391c0-.843.211-1.484.633-1.921.427-.438.958-.657 1.594-.657.338 0 .619.05.843.149v.734Zm.922 11.086v-11.844h.719V225h-.719Zm8.563 0v-1.453h-.031c-.558 1.099-1.417 1.648-2.579 1.648-1.89 0-2.836-1.19-2.836-3.57V217h.727v4.445c0 1.084.177 1.87.531 2.36.36.489.922.734 1.688.734.745 0 1.346-.273 1.804-.82.464-.547.696-1.276.696-2.188V217h.719v8h-.719Zm3.453-3.969c0 1.099.253 1.959.758 2.578.51.62 1.208.93 2.093.93.896 0 1.771-.331 2.626-.992v.765a4.676 4.676 0 0 1-2.774.883c-1.031 0-1.865-.369-2.5-1.109s-.953-1.784-.953-3.133c0-1.167.331-2.148.992-2.945.667-.802 1.531-1.203 2.594-1.203.995 0 1.758.349 2.289 1.047.531.697.797 1.651.797 2.859v.32h-5.922Zm5.172-.656c-.031-.922-.253-1.638-.664-2.148-.412-.511-.979-.766-1.703-.766-.75 0-1.373.253-1.868.758-.489.5-.791 1.219-.906 2.156h5.141Zm8.172 4.625v-4.656c0-1.922-.693-2.883-2.078-2.883-.771 0-1.404.284-1.899.851-.495.563-.742 1.261-.742 2.094V225h-.719v-8h.719v1.453h.031c.584-1.099 1.495-1.648 2.735-1.648.864 0 1.526.289 1.984.867.458.573.687 1.393.687 2.461V225h-.718Zm8.304-.352c-.593.365-1.302.547-2.125.547-1.088 0-1.966-.372-2.632-1.117-.667-.75-1-1.729-1-2.937 0-1.271.375-2.31 1.125-3.118.75-.812 1.713-1.218 2.89-1.218.61 0 1.201.125 1.774.375v.812a3.515 3.515 0 0 0-1.883-.531c-.938 0-1.698.338-2.281 1.016-.584.671-.875 1.544-.875 2.617 0 1.036.265 1.87.796 2.5.537.63 1.243.945 2.118.945.802 0 1.5-.213 2.093-.641v.75Zm2.102-3.617c0 1.099.253 1.959.758 2.578.51.62 1.208.93 2.093.93.896 0 1.771-.331 2.626-.992v.765a4.676 4.676 0 0 1-2.774.883c-1.031 0-1.865-.369-2.5-1.109s-.953-1.784-.953-3.133c0-1.167.331-2.148.992-2.945.667-.802 1.531-1.203 2.594-1.203.995 0 1.758.349 2.289 1.047.531.697.797 1.651.797 2.859v.32h-5.922Zm5.172-.656c-.031-.922-.253-1.638-.664-2.148-.412-.511-.979-.766-1.703-.766-.75 0-1.373.253-1.868.758-.489.5-.791 1.219-.906 2.156h5.141Z" fill="#999"/></svg>