<svg width="914" height="400" fill="none" xmlns="http://www.w3.org/2000/svg"><style>#CL0 {fill: #333;}#CL1 {fill: #999;}@media (prefers-color-scheme: dark) {#CL0 {fill: #CCC;}#CL1 {fill: #666;}}</style><path d="M379.062 197h-5.072l-3.049-5.045a17.141 17.141 0 0 0-.656-1.025 5.098 5.098 0 0 0-.643-.766 2.205 2.205 0 0 0-.67-.492 1.598 1.598 0 0 0-.752-.178h-1.189V197h-4.416v-19.605h7c4.758 0 7.137 1.777 7.137 5.332a5.57 5.57 0 0 1-.315 1.9 5.294 5.294 0 0 1-.889 1.559 5.598 5.598 0 0 1-1.394 1.203 7.063 7.063 0 0 1-1.805.793v.054c.292.091.574.242.848.452.273.2.538.437.793.71.255.274.497.57.724.889.237.31.452.615.643.916l3.705 5.797Zm-12.031-16.297v5.455h1.914c.948 0 1.709-.273 2.283-.82.583-.556.875-1.244.875-2.065 0-1.713-1.025-2.57-3.076-2.57h-1.996Zm24.76 10.527h-9.133c.146 2.033 1.427 3.049 3.842 3.049 1.541 0 2.894-.364 4.061-1.093v3.117c-1.295.692-2.976 1.039-5.045 1.039-2.261 0-4.015-.625-5.264-1.873-1.249-1.258-1.873-3.008-1.873-5.25 0-2.324.675-4.166 2.023-5.524 1.349-1.358 3.008-2.037 4.977-2.037 2.042 0 3.619.606 4.731 1.819 1.121 1.212 1.681 2.857 1.681 4.935v1.818Zm-4.006-2.652c0-2.005-.811-3.008-2.433-3.008-.693 0-1.295.287-1.805.862-.501.574-.807 1.289-.916 2.146h5.154ZM416.032 197h-4.307v-7.984c0-2.033-.747-3.049-2.242-3.049-.711 0-1.29.305-1.736.916-.447.61-.67 1.372-.67 2.283V197h-4.32v-8.066c0-1.978-.734-2.967-2.202-2.967-.738 0-1.33.291-1.777.875-.437.583-.656 1.376-.656 2.379V197h-4.321v-14h4.321v2.188h.054c.447-.748 1.071-1.354 1.874-1.819a5.163 5.163 0 0 1 2.652-.711c1.978 0 3.331.871 4.06 2.612 1.067-1.741 2.635-2.612 4.704-2.612 3.044 0 4.566 1.878 4.566 5.633V197Zm5.045-16.215c-.729 0-1.326-.214-1.791-.642a2.118 2.118 0 0 1-.697-1.6c0-.647.233-1.176.697-1.586.465-.41 1.062-.615 1.791-.615.739 0 1.336.205 1.791.615.465.41.698.939.698 1.586 0 .656-.233 1.194-.698 1.613-.455.42-1.052.629-1.791.629ZM423.21 197h-4.32v-14h4.32v14Zm16.598-14-4.621 6.781 4.594 7.219h-4.976l-2.024-3.773c-.164-.301-.36-.725-.588-1.272h-.054a8.936 8.936 0 0 1-.561 1.231L429.541 197h-4.963l4.73-6.973-4.443-7.027h5.004l1.996 3.924c.264.519.451.957.561 1.312h.054c.146-.428.342-.875.588-1.34l2.037-3.896h4.703Zm13.481 8.23h-9.132c.145 2.033 1.426 3.049 3.841 3.049 1.541 0 2.894-.364 4.061-1.093v3.117c-1.294.692-2.976 1.039-5.045 1.039-2.26 0-4.015-.625-5.264-1.873-1.248-1.258-1.873-3.008-1.873-5.25 0-2.324.675-4.166 2.024-5.524 1.349-1.358 3.008-2.037 4.976-2.037 2.042 0 3.619.606 4.731 1.819 1.121 1.212 1.681 2.857 1.681 4.935v1.818Zm-4.005-2.652c0-2.005-.812-3.008-2.434-3.008-.693 0-1.294.287-1.805.862-.501.574-.806 1.289-.916 2.146h5.155ZM468.999 197h-4.32v-1.928h-.055c-.984 1.513-2.429 2.27-4.334 2.27-1.75 0-3.158-.615-4.225-1.846-1.066-1.239-1.599-2.967-1.599-5.182 0-2.315.588-4.169 1.763-5.564 1.176-1.395 2.717-2.092 4.622-2.092 1.804 0 3.062.647 3.773 1.942h.055v-8.327h4.32V197Zm-4.238-6.809v-1.052c0-.912-.265-1.668-.793-2.27-.529-.601-1.217-.902-2.065-.902-.957 0-1.704.378-2.242 1.135-.538.747-.807 1.777-.807 3.089 0 1.231.26 2.179.78 2.844.519.666 1.239.998 2.16.998.875 0 1.586-.351 2.133-1.053.556-.701.834-1.631.834-2.789Zm17.005-11.129V197h-1.819v-17.938h-5.646v-1.667h13.125v1.667h-5.66ZM499.253 197v-8.23c0-1.568-.283-2.721-.848-3.459-.565-.748-1.445-1.122-2.639-1.122a3.931 3.931 0 0 0-2.953 1.327c-.383.428-.688.952-.916 1.572-.228.611-.342 1.303-.342 2.078V197h-1.75v-20.727h1.75v9.147h.055c1.094-1.832 2.662-2.748 4.703-2.748 1.559 0 2.73.478 3.514 1.435.784.957 1.176 2.37 1.176 4.239V197h-1.75Zm6.248-6.686c.009.857.123 1.627.342 2.311.219.684.533 1.262.943 1.736a4.14 4.14 0 0 0 1.491 1.094c.592.246 1.257.369 1.996.369 1.577 0 3.067-.551 4.47-1.654v1.723c-1.339.957-2.962 1.435-4.867 1.435-.939 0-1.791-.164-2.556-.492a5.322 5.322 0 0 1-1.955-1.422c-.538-.629-.953-1.399-1.245-2.31-.291-.912-.437-1.951-.437-3.118 0-1.048.159-2.019.478-2.912.319-.893.761-1.663 1.327-2.31a5.995 5.995 0 0 1 2.009-1.532 5.788 5.788 0 0 1 2.543-.56c.903 0 1.7.159 2.393.478.693.31 1.271.757 1.736 1.34.474.584.834 1.295 1.08 2.133.246.839.369 1.777.369 2.816v.875h-10.117Zm8.313-1.531c-.028-1.458-.374-2.588-1.039-3.39-.666-.803-1.591-1.204-2.776-1.204-.592 0-1.144.105-1.654.315-.501.21-.943.515-1.326.916a4.886 4.886 0 0 0-.957 1.449 7.38 7.38 0 0 0-.52 1.914h8.272ZM536.086 197v-8.23c0-.839-.064-1.545-.192-2.12-.127-.583-.328-1.057-.601-1.421a2.256 2.256 0 0 0-1.026-.793c-.41-.165-.902-.247-1.476-.247-.511 0-.994.123-1.449.37a3.79 3.79 0 0 0-1.204.998 4.956 4.956 0 0 0-.806 1.49 5.827 5.827 0 0 0-.287 1.859V197h-1.75v-8.408c0-2.935-1.126-4.403-3.377-4.403-.52 0-1.003.119-1.449.356a3.595 3.595 0 0 0-1.176.971 4.878 4.878 0 0 0-.78 1.517 6.505 6.505 0 0 0-.273 1.942V197h-1.75v-14h1.75v2.27h.055c.984-1.732 2.42-2.598 4.306-2.598.493 0 .957.077 1.395.232.437.146.829.356 1.176.629.346.265.642.584.888.957.256.374.447.784.575 1.231.492-.994 1.13-1.75 1.914-2.27.793-.519 1.686-.779 2.679-.779 3.072 0 4.608 1.896 4.608 5.687V197h-1.75Zm6.248-6.686c.009.857.123 1.627.342 2.311.219.684.533 1.262.944 1.736.41.474.906.839 1.49 1.094.592.246 1.258.369 1.996.369 1.577 0 3.067-.551 4.471-1.654v1.723c-1.34.957-2.963 1.435-4.868 1.435-.938 0-1.791-.164-2.556-.492a5.322 5.322 0 0 1-1.955-1.422c-.538-.629-.953-1.399-1.245-2.31-.291-.912-.437-1.951-.437-3.118 0-1.048.159-2.019.479-2.912.319-.893.761-1.663 1.326-2.31a5.995 5.995 0 0 1 2.009-1.532 5.788 5.788 0 0 1 2.543-.56c.903 0 1.7.159 2.393.478.693.31 1.271.757 1.736 1.34.474.584.834 1.295 1.08 2.133.246.839.37 1.777.37 2.816v.875h-10.118Zm8.313-1.531c-.027-1.458-.374-2.588-1.039-3.39-.666-.803-1.591-1.204-2.776-1.204-.592 0-1.143.105-1.654.315-.501.21-.943.515-1.326.916a4.886 4.886 0 0 0-.957 1.449 7.38 7.38 0 0 0-.52 1.914h8.272Z" id="CL0"/><path d="M379.594 214.102c-.224-.146-.513-.219-.867-.219-.938 0-1.407.612-1.407 1.836V217h1.992v.875h-1.992V225h-1v-7.125h-1.398V217h1.398v-1.344c0-.401.05-.763.149-1.086.104-.328.255-.606.453-.836.198-.234.445-.414.742-.539a2.697 2.697 0 0 1 1.039-.187c.375 0 .672.049.891.148v.946Zm4.265 11.086a4.12 4.12 0 0 1-1.601-.297 3.448 3.448 0 0 1-1.203-.836 3.737 3.737 0 0 1-.766-1.305 5.052 5.052 0 0 1-.266-1.68c0-.666.094-1.263.282-1.789a3.75 3.75 0 0 1 .797-1.336 3.436 3.436 0 0 1 1.257-.843 4.444 4.444 0 0 1 1.641-.29c.578 0 1.099.097 1.562.29.464.187.857.46 1.18.82.323.359.57.797.742 1.312.172.516.258 1.102.258 1.758a5.11 5.11 0 0 1-.273 1.711 3.802 3.802 0 0 1-.766 1.32c-.333.37-.739.657-1.219.86-.479.203-1.02.305-1.625.305Zm.079-7.508a3 3 0 0 0-1.188.226 2.513 2.513 0 0 0-.914.664c-.25.287-.443.641-.578 1.063-.136.416-.203.89-.203 1.422 0 .5.067.95.203 1.351.135.401.325.745.57 1.032.25.286.552.507.906.664.355.151.75.226 1.188.226a3.01 3.01 0 0 0 1.187-.219c.344-.151.636-.367.875-.648.24-.287.42-.635.539-1.047.125-.411.188-.88.188-1.406 0-1.078-.24-1.901-.719-2.469-.479-.573-1.164-.859-2.054-.859Zm9.789.343c-.235-.171-.537-.257-.907-.257-.265 0-.5.052-.703.156a1.77 1.77 0 0 0-.539.406 2.6 2.6 0 0 0-.39.602 4.364 4.364 0 0 0-.258.703 5.88 5.88 0 0 0-.141.742c-.026.25-.039.487-.039.711V225h-.992v-8h.992v1.711h.031c.094-.292.211-.552.352-.781a2.39 2.39 0 0 1 .5-.586c.187-.162.39-.284.609-.367.224-.084.459-.125.703-.125.162 0 .305.01.43.031.13.021.247.052.352.094v1.046Zm8.625 3.039c0 1.396-.258 2.433-.774 3.11s-1.245 1.016-2.187 1.016c-.183 0-.355-.014-.516-.04a1.883 1.883 0 0 1-.445-.109v-1.023c.291.156.617.234.976.234.662 0 1.143-.26 1.446-.781.307-.521.46-1.323.46-2.407v-7.265h1.04v7.265Zm3.875 3.938h-1.039v-11.203h1.039V225Zm9.015 0-1.687-3.211a6.346 6.346 0 0 0-.485-.797 2.394 2.394 0 0 0-.484-.508 1.511 1.511 0 0 0-.539-.273 2.178 2.178 0 0 0-.633-.086h-1.234V225h-1.039v-11.203h3.226c.422 0 .828.062 1.219.187.396.125.747.31 1.055.555.307.245.552.552.734.922.187.37.281.799.281 1.289 0 .396-.06.76-.179 1.094a2.81 2.81 0 0 1-.516.89 3.041 3.041 0 0 1-.805.657c-.312.177-.666.31-1.062.398v.031c.151.063.289.144.414.242.125.099.245.219.359.36.12.14.237.302.352.484.114.183.234.391.359.625l1.883 3.469h-1.219Zm-5.062-10.25v4.43h1.859a3.11 3.11 0 0 0 1.031-.164c.313-.11.578-.266.797-.469a2.04 2.04 0 0 0 .516-.735c.125-.286.187-.609.187-.968 0-.651-.211-1.162-.632-1.532-.417-.374-1.021-.562-1.813-.562h-1.945ZM425.633 225l-1.235-3.312h-4.804L418.391 225h-1.157l4.266-11.203h1.047L426.789 225h-1.156Zm-3.414-9.242a7.077 7.077 0 0 1-.117-.344 3.78 3.78 0 0 1-.094-.445h-.031a3.81 3.81 0 0 1-.11.445 4.62 4.62 0 0 1-.109.344l-1.813 4.984h4.102l-1.828-4.984ZM437.398 225v-1.422h-.031c-.26.511-.617.906-1.07 1.188a2.808 2.808 0 0 1-1.524.422c-.385 0-.734-.055-1.046-.165a2.298 2.298 0 0 1-.789-.461 2.138 2.138 0 0 1-.5-.726 2.433 2.433 0 0 1-.172-.93c0-.724.224-1.299.672-1.726.447-.433 1.124-.714 2.031-.844l2.429-.352c0-1.536-.596-2.304-1.789-2.304-.932 0-1.797.341-2.593 1.023v-1.094c.166-.119.354-.226.562-.32.214-.099.438-.182.672-.25.234-.073.474-.128.719-.164a4.38 4.38 0 0 1 .726-.063c.891 0 1.563.25 2.016.75.458.5.687 1.245.687 2.235V225h-1Zm-2.062-3.883a6.276 6.276 0 0 0-.922.195 1.864 1.864 0 0 0-.633.321 1.15 1.15 0 0 0-.367.492 1.925 1.925 0 0 0-.117.719c0 .213.036.411.109.594.078.182.188.341.328.476.146.13.321.232.524.305.208.073.443.109.703.109a2.273 2.273 0 0 0 1.742-.766c.219-.239.388-.526.508-.859.125-.333.187-.695.187-1.086v-.789l-2.062.289ZM446.203 225v-4.609c0-1.808-.656-2.711-1.969-2.711-.349 0-.672.07-.968.211a2.31 2.31 0 0 0-.774.57 2.789 2.789 0 0 0-.508.875 3.205 3.205 0 0 0-.179 1.086V225h-1v-8h1v1.391h.031c.594-1.052 1.487-1.579 2.68-1.579.875 0 1.541.284 2 .852.458.568.687 1.388.687 2.461V225h-1Zm9.024 0v-1.406h-.032a2.859 2.859 0 0 1-1.14 1.179c-.49.276-1.047.415-1.672.415-.5 0-.956-.092-1.367-.274a2.957 2.957 0 0 1-1.047-.805 3.774 3.774 0 0 1-.68-1.265 5.582 5.582 0 0 1-.234-1.68c0-.646.086-1.234.257-1.766.178-.536.425-.994.743-1.375a3.317 3.317 0 0 1 1.156-.89 3.487 3.487 0 0 1 1.508-.321c1.151 0 1.976.461 2.476 1.383h.032v-5.039h1V225h-1Zm0-4.828c0-.349-.06-.675-.18-.977a2.32 2.32 0 0 0-1.274-1.32 2.424 2.424 0 0 0-.984-.195c-.396 0-.76.078-1.094.234a2.409 2.409 0 0 0-.859.68 3.309 3.309 0 0 0-.555 1.07 4.88 4.88 0 0 0-.195 1.438c0 .505.06.958.18 1.359.119.401.289.74.507 1.016.224.276.49.487.797.632a2.36 2.36 0 0 0 1.024.219c.406 0 .771-.073 1.094-.219.328-.145.604-.346.828-.601a2.62 2.62 0 0 0 .523-.899c.125-.343.188-.711.188-1.101v-1.336Zm15.664 4.414c-.865.406-1.852.609-2.961.609-.792 0-1.511-.138-2.157-.414a4.895 4.895 0 0 1-1.656-1.164 5.265 5.265 0 0 1-1.055-1.765 6.599 6.599 0 0 1-.367-2.235c0-.849.131-1.638.391-2.367a5.633 5.633 0 0 1 1.133-1.906 5.198 5.198 0 0 1 1.773-1.274c.698-.307 1.479-.461 2.344-.461.953 0 1.805.146 2.555.438v1.109a5.67 5.67 0 0 0-2.571-.601c-.724 0-1.367.125-1.929.375a3.972 3.972 0 0 0-1.422 1.047c-.386.442-.68.968-.883 1.578a6.193 6.193 0 0 0-.305 1.984c0 .646.091 1.255.274 1.828.182.568.45 1.065.804 1.492.36.427.805.766 1.336 1.016.532.25 1.149.375 1.852.375 1.078 0 2.026-.227 2.844-.68v1.016Zm5.5.602a4.121 4.121 0 0 1-1.602-.297 3.448 3.448 0 0 1-1.203-.836 3.753 3.753 0 0 1-.766-1.305 5.052 5.052 0 0 1-.265-1.68c0-.666.093-1.263.281-1.789a3.75 3.75 0 0 1 .797-1.336 3.431 3.431 0 0 1 1.258-.843 4.435 4.435 0 0 1 1.64-.29c.578 0 1.099.097 1.563.29.463.187.857.46 1.179.82.323.359.571.797.743 1.312.172.516.257 1.102.257 1.758a5.11 5.11 0 0 1-.273 1.711 3.787 3.787 0 0 1-.766 1.32 3.4 3.4 0 0 1-1.218.86c-.48.203-1.021.305-1.625.305Zm.078-7.508a3 3 0 0 0-1.188.226 2.513 2.513 0 0 0-.914.664c-.25.287-.443.641-.578 1.063a4.6 4.6 0 0 0-.203 1.422c0 .5.068.95.203 1.351s.326.745.57 1.032c.25.286.552.507.907.664.354.151.75.226 1.187.226.448 0 .844-.073 1.188-.219.343-.151.635-.367.875-.648.239-.287.419-.635.539-1.047.125-.411.187-.88.187-1.406 0-1.078-.239-1.901-.719-2.469-.479-.573-1.164-.859-2.054-.859Zm11.219 7.32v-4.609c0-1.808-.657-2.711-1.969-2.711-.349 0-.672.07-.969.211a2.296 2.296 0 0 0-.773.57 2.77 2.77 0 0 0-.508.875 3.18 3.18 0 0 0-.18 1.086V225h-1v-8h1v1.391h.031c.594-1.052 1.487-1.579 2.68-1.579.875 0 1.542.284 2 .852.458.568.688 1.388.688 2.461V225h-1Zm7.14-10.898c-.224-.146-.513-.219-.867-.219-.938 0-1.406.612-1.406 1.836V217h1.992v.875h-1.992V225h-1v-7.125h-1.399V217h1.399v-1.344a3.7 3.7 0 0 1 .148-1.086c.104-.328.255-.606.453-.836a1.95 1.95 0 0 1 .742-.539 2.706 2.706 0 0 1 1.04-.187c.374 0 .671.049.89.148v.946ZM495.82 225v-11.844h1V225h-1Zm8.813 0v-1.359h-.031c-.542 1.031-1.383 1.547-2.524 1.547-1.901 0-2.851-1.162-2.851-3.485V217h1v4.516c0 .958.169 1.666.507 2.125.344.458.868.687 1.571.687.343 0 .656-.065.937-.195.287-.136.531-.323.735-.563.208-.244.369-.536.484-.875.115-.338.172-.713.172-1.125V217h1v8h-1Zm4.055-3.82c.005.489.07.929.195 1.32s.305.721.539.992c.234.271.518.479.851.625.339.141.719.211 1.141.211.901 0 1.753-.315 2.555-.945v.984c-.766.547-1.693.821-2.781.821a3.66 3.66 0 0 1-1.461-.282 3.048 3.048 0 0 1-1.118-.812c-.307-.36-.544-.8-.711-1.321-.166-.52-.25-1.114-.25-1.781 0-.599.092-1.153.274-1.664.182-.51.435-.95.758-1.32a3.417 3.417 0 0 1 1.148-.875 3.295 3.295 0 0 1 1.453-.321c.516 0 .972.092 1.367.274.396.177.727.432.993.766.27.333.476.739.617 1.218.14.479.211 1.016.211 1.61v.5h-5.781Zm4.75-.875c-.016-.834-.214-1.479-.594-1.938-.38-.458-.909-.687-1.586-.687-.339 0-.654.06-.946.179-.286.12-.539.295-.757.524-.219.224-.401.5-.547.828-.141.323-.24.687-.297 1.094h4.727Zm8.39 4.695v-4.609c0-1.808-.656-2.711-1.969-2.711-.349 0-.671.07-.968.211a2.31 2.31 0 0 0-.774.57 2.789 2.789 0 0 0-.508.875 3.205 3.205 0 0 0-.179 1.086V225h-1v-8h1v1.391h.031c.594-1.052 1.487-1.579 2.68-1.579.875 0 1.541.284 2 .852.458.568.687 1.388.687 2.461V225h-1Zm8.734-.359c-.593.359-1.312.544-2.156.554a3.67 3.67 0 0 1-1.547-.297 3.406 3.406 0 0 1-1.171-.843 3.82 3.82 0 0 1-.743-1.282 4.865 4.865 0 0 1-.257-1.609c0-.599.091-1.161.273-1.687.182-.532.448-.993.797-1.383a3.745 3.745 0 0 1 1.281-.938c.505-.229 1.083-.344 1.734-.344.662 0 1.266.128 1.813.383v1.063a3.36 3.36 0 0 0-1.891-.578c-.474 0-.896.091-1.265.273-.37.177-.683.422-.938.735-.25.307-.443.669-.578 1.085-.13.412-.195.849-.195 1.313 0 .427.054.836.164 1.226.114.391.286.737.515 1.04.235.296.529.533.883.71.354.178.771.266 1.25.266.75 0 1.427-.224 2.031-.672v.985Zm2.407-3.461c.005.489.07.929.195 1.32s.305.721.539.992c.235.271.518.479.852.625.338.141.718.211 1.14.211.901 0 1.753-.315 2.555-.945v.984c-.766.547-1.693.821-2.781.821a3.66 3.66 0 0 1-1.461-.282 3.037 3.037 0 0 1-1.117-.812c-.308-.36-.545-.8-.711-1.321-.167-.52-.25-1.114-.25-1.781 0-.599.091-1.153.273-1.664.182-.51.435-.95.758-1.32a3.427 3.427 0 0 1 1.148-.875 3.295 3.295 0 0 1 1.453-.321c.516 0 .972.092 1.368.274.396.177.726.432.992.766.271.333.476.739.617 1.218.141.479.211 1.016.211 1.61v.5h-5.781Zm4.75-.875c-.016-.834-.214-1.479-.594-1.938-.38-.458-.909-.687-1.586-.687-.338 0-.654.06-.945.179a2.23 2.23 0 0 0-.758.524c-.219.224-.401.5-.547.828-.141.323-.24.687-.297 1.094h4.727Z" id="CL1"/></svg>