<svg width="16" height="16" viewBox="0 0 16 16" fill="none" xmlns="http://www.w3.org/2000/svg">
<g clip-path="url(#clip0_4115_38)">
<path d="M5 1.73205C6.4641 0.886751 7.19615 0.464102 8 0.464102C8.80385 0.464102 9.5359 0.886751 11 1.73205L11.9282 2.26795C13.3923 3.11325 14.1244 3.5359 14.5263 4.23205C14.9282 4.9282 14.9282 5.7735 14.9282 7.4641V8.5359C14.9282 10.2265 14.9282 11.0718 14.5263 11.7679C14.1244 12.4641 13.3923 12.8868 11.9282 13.7321L11 14.2679C9.5359 15.1132 8.80385 15.5359 8 15.5359C7.19615 15.5359 6.4641 15.1132 5 14.2679L4.0718 13.7321C2.6077 12.8868 1.87564 12.4641 1.47372 11.7679C1.0718 11.0718 1.0718 10.2265 1.0718 8.5359V7.4641C1.0718 5.7735 1.0718 4.9282 1.47372 4.23205C1.87564 3.5359 2.6077 3.11325 4.0718 2.26795L5 1.73205Z" fill="#DB6C5D"/>
<path d="M7.81893 12.371C7.22493 12.371 6.73726 12.2793 6.35593 12.096C5.9746 11.9127 5.6996 11.6597 5.53093 11.337C5.36226 11.007 5.29993 10.6367 5.34393 10.226C5.35126 10.1233 5.39893 10.072 5.48693 10.072H6.80693C6.9096 10.072 6.96093 10.1233 6.96093 10.226C6.96093 10.4167 7.0306 10.578 7.16993 10.71C7.30926 10.842 7.54026 10.908 7.86293 10.908C8.22226 10.908 8.47893 10.8347 8.63293 10.688C8.79426 10.5413 8.87493 10.314 8.87493 10.006V9.819C8.87493 9.63567 8.83826 9.478 8.76493 9.346C8.6916 9.214 8.57793 9.11133 8.42393 9.038C8.26993 8.96467 8.0646 8.928 7.80793 8.928C7.4926 8.928 7.15526 8.961 6.79593 9.027C6.4366 9.093 6.10293 9.17 5.79493 9.258C5.69226 9.28733 5.61893 9.291 5.57493 9.269C5.53826 9.23967 5.5236 9.181 5.53093 9.093L5.86093 5.199C5.8756 5.09633 5.92693 5.045 6.01493 5.045H9.95293C10.0556 5.045 10.1069 5.09633 10.1069 5.199V6.354C10.1069 6.45667 10.0556 6.508 9.95293 6.508H7.29093L7.18093 7.762C7.4156 7.70333 7.63193 7.65933 7.82993 7.63C8.03526 7.59333 8.25526 7.575 8.48993 7.575C9.20126 7.575 9.72926 7.762 10.0739 8.136C10.4186 8.51 10.5909 9.09667 10.5909 9.896C10.5909 10.754 10.3636 11.381 9.90893 11.777C9.45426 12.173 8.7576 12.371 7.81893 12.371Z" fill="black" fill-opacity="0.3"/>
<path d="M7.81893 11.371C7.22493 11.371 6.73726 11.2793 6.35593 11.096C5.9746 10.9127 5.6996 10.6597 5.53093 10.337C5.36226 10.007 5.29993 9.63667 5.34393 9.226C5.35126 9.12333 5.39893 9.072 5.48693 9.072H6.80693C6.9096 9.072 6.96093 9.12333 6.96093 9.226C6.96093 9.41667 7.0306 9.578 7.16993 9.71C7.30926 9.842 7.54026 9.908 7.86293 9.908C8.22226 9.908 8.47893 9.83467 8.63293 9.688C8.79426 9.54133 8.87493 9.314 8.87493 9.006V8.819C8.87493 8.63567 8.83826 8.478 8.76493 8.346C8.6916 8.214 8.57793 8.11133 8.42393 8.038C8.26993 7.96467 8.0646 7.928 7.80793 7.928C7.4926 7.928 7.15526 7.961 6.79593 8.027C6.4366 8.093 6.10293 8.17 5.79493 8.258C5.69226 8.28733 5.61893 8.291 5.57493 8.269C5.53826 8.23967 5.5236 8.181 5.53093 8.093L5.86093 4.199C5.8756 4.09633 5.92693 4.045 6.01493 4.045H9.95293C10.0556 4.045 10.1069 4.09633 10.1069 4.199V5.354C10.1069 5.45667 10.0556 5.508 9.95293 5.508H7.29093L7.18093 6.762C7.4156 6.70333 7.63193 6.65933 7.82993 6.63C8.03526 6.59333 8.25526 6.575 8.48993 6.575C9.20126 6.575 9.72926 6.762 10.0739 7.136C10.4186 7.51 10.5909 8.09667 10.5909 8.896C10.5909 9.754 10.3636 10.381 9.90893 10.777C9.45426 11.173 8.7576 11.371 7.81893 11.371Z" fill="white"/>
</g>
<defs>
<clipPath id="clip0_4115_38">
<rect width="16" height="16" fill="white"/>
</clipPath>
</defs>
</svg>
