<svg width="16" height="16" fill="none" xmlns="http://www.w3.org/2000/svg"><path d="M5 1.732C6.464.887 7.196.464 8 .464c.804 0 1.536.423 3 1.268l.928.536c1.464.845 2.196 1.268 2.598 1.964.402.696.402 1.542.402 3.232v1.072c0 1.69 0 2.536-.402 3.232-.402.696-1.134 1.119-2.598 1.964l-.928.536c-1.464.845-2.196 1.268-3 1.268-.804 0-1.536-.423-3-1.268l-.928-.536c-1.464-.845-2.196-1.268-2.598-1.964-.402-.696-.402-1.542-.402-3.232V7.464c0-1.69 0-2.536.402-3.232.402-.696 1.134-1.119 2.598-1.964L5 1.732Z" fill="#DB6C5D"/><path d="M7.819 12.621c-.594 0-1.082-.092-1.463-.275-.381-.183-.656-.436-.825-.759-.169-.33-.231-.7-.187-1.111.007-.103.055-.154.143-.154h1.32c.103 0 .154.051.154.154 0 .19.07.352.209.484.14.132.37.198.693.198.36 0 .616-.073.77-.22.161-.147.242-.374.242-.682v-.187a.96.96 0 0 0-.11-.473.739.739 0 0 0-.341-.308c-.154-.073-.36-.11-.616-.11-.315 0-.653.033-1.012.099-.36.066-.693.143-1.001.231-.103.03-.176.033-.22.011-.037-.03-.051-.088-.044-.176l.33-3.894c.015-.103.066-.154.154-.154h3.938c.103 0 .154.051.154.154v1.155c0 .103-.051.154-.154.154H7.29l-.11 1.254c.235-.059.45-.103.649-.132.205-.037.425-.055.66-.055.711 0 1.24.187 1.584.561.345.374.517.96.517 1.76 0 .858-.227 1.485-.682 1.881-.455.396-1.151.594-2.09.594Z" fill="#000" fill-opacity=".3"/><path d="M7.819 11.621c-.594 0-1.082-.092-1.463-.275-.381-.183-.656-.436-.825-.759-.169-.33-.231-.7-.187-1.111.007-.103.055-.154.143-.154h1.32c.103 0 .154.051.154.154 0 .19.07.352.209.484.14.132.37.198.693.198.36 0 .616-.073.77-.22.161-.147.242-.374.242-.682v-.187a.96.96 0 0 0-.11-.473.739.739 0 0 0-.341-.308c-.154-.073-.36-.11-.616-.11-.315 0-.653.033-1.012.099-.36.066-.693.143-1.001.231-.103.03-.176.033-.22.011-.037-.03-.051-.088-.044-.176l.33-3.894c.015-.103.066-.154.154-.154h3.938c.103 0 .154.051.154.154v1.155c0 .103-.051.154-.154.154H7.29l-.11 1.254c.235-.059.45-.103.649-.132.205-.037.425-.055.66-.055.711 0 1.24.187 1.584.561.345.374.517.96.517 1.76 0 .858-.227 1.485-.682 1.881-.455.396-1.151.594-2.09.594Z" fill="#fff"/></svg>