<svg width="16" height="16" viewBox="0 0 16 16" fill="none" xmlns="http://www.w3.org/2000/svg">
<g clip-path="url(#clip0_4115_34)">
<path d="M5 1.73205C6.4641 0.886751 7.19615 0.464102 8 0.464102C8.80385 0.464102 9.5359 0.886751 11 1.73205L11.9282 2.26795C13.3923 3.11325 14.1244 3.5359 14.5263 4.23205C14.9282 4.9282 14.9282 5.7735 14.9282 7.4641V8.5359C14.9282 10.2265 14.9282 11.0718 14.5263 11.7679C14.1244 12.4641 13.3923 12.8868 11.9282 13.7321L11 14.2679C9.5359 15.1132 8.80385 15.5359 8 15.5359C7.19615 15.5359 6.4641 15.1132 5 14.2679L4.0718 13.7321C2.6077 12.8868 1.87564 12.4641 1.47372 11.7679C1.0718 11.0718 1.0718 10.2265 1.0718 8.5359V7.4641C1.0718 5.7735 1.0718 4.9282 1.47372 4.23205C1.87564 3.5359 2.6077 3.11325 4.0718 2.26795L5 1.73205Z" fill="#E1BB59"/>
<path d="M8.63246 12.25C8.53712 12.25 8.48946 12.1987 8.48946 12.096V11.062H5.03546C4.93279 11.062 4.88146 11.0143 4.88146 10.919V10.611C4.88146 10.5157 4.89612 10.4423 4.92546 10.391L7.41146 5.155C7.45546 5.08167 7.51412 5.045 7.58746 5.045H9.09446C9.15312 5.045 9.18979 5.06333 9.20446 5.1C9.22646 5.12933 9.22646 5.16967 9.20446 5.221L7.18046 9.61H8.52246L8.73146 7.597C8.74612 7.49433 8.79746 7.443 8.88546 7.443H10.0845C10.1871 7.443 10.2385 7.49433 10.2385 7.597V9.61H10.8215C10.9241 9.61 10.9755 9.65767 10.9755 9.753V10.919C10.9755 11.0143 10.9241 11.062 10.8215 11.062H10.2385V12.096C10.2385 12.1987 10.1871 12.25 10.0845 12.25H8.63246Z" fill="black" fill-opacity="0.3"/>
<path d="M8.63246 11.25C8.53712 11.25 8.48946 11.1987 8.48946 11.096V10.062H5.03546C4.93279 10.062 4.88146 10.0143 4.88146 9.919V9.611C4.88146 9.51567 4.89612 9.44233 4.92546 9.391L7.41146 4.155C7.45546 4.08167 7.51412 4.045 7.58746 4.045H9.09446C9.15312 4.045 9.18979 4.06333 9.20446 4.1C9.22646 4.12933 9.22646 4.16967 9.20446 4.221L7.18046 8.61H8.52246L8.73146 6.597C8.74612 6.49433 8.79746 6.443 8.88546 6.443H10.0845C10.1871 6.443 10.2385 6.49433 10.2385 6.597V8.61H10.8215C10.9241 8.61 10.9755 8.65767 10.9755 8.753V9.919C10.9755 10.0143 10.9241 10.062 10.8215 10.062H10.2385V11.096C10.2385 11.1987 10.1871 11.25 10.0845 11.25H8.63246Z" fill="white"/>
</g>
<defs>
<clipPath id="clip0_4115_34">
<rect width="16" height="16" fill="white"/>
</clipPath>
</defs>
</svg>
