<svg width="16" height="16" fill="none" xmlns="http://www.w3.org/2000/svg"><path d="M5 1.732C6.464.887 7.196.464 8 .464c.804 0 1.536.423 3 1.268l.928.536c1.464.845 2.196 1.268 2.598 1.964.402.696.402 1.542.402 3.232v1.072c0 1.69 0 2.536-.402 3.232-.402.696-1.134 1.119-2.598 1.964l-.928.536c-1.464.845-2.196 1.268-3 1.268-.804 0-1.536-.423-3-1.268l-.928-.536c-1.464-.845-2.196-1.268-2.598-1.964-.402-.696-.402-1.542-.402-3.232V7.464c0-1.69 0-2.536.402-3.232.402-.696 1.134-1.119 2.598-1.964L5 1.732Z" fill="#E1BB59"/><path d="M8.632 12.5c-.095 0-.143-.051-.143-.154v-1.034H5.035c-.102 0-.154-.048-.154-.143v-.308c0-.095.015-.169.044-.22l2.486-5.236c.044-.073.103-.11.176-.11h1.507c.06 0 .096.018.11.055.022.03.022.07 0 .121L7.18 9.86h1.342l.21-2.013c.014-.103.065-.154.153-.154h1.2c.102 0 .153.051.153.154V9.86h.584c.102 0 .154.048.154.143v1.166c0 .095-.052.143-.155.143h-.582v1.034c0 .103-.052.154-.155.154H8.633Z" fill="#000" fill-opacity=".3"/><path d="M8.632 11.5c-.095 0-.143-.051-.143-.154v-1.034H5.035c-.102 0-.154-.048-.154-.143v-.308c0-.095.015-.169.044-.22l2.486-5.236c.044-.073.103-.11.176-.11h1.507c.06 0 .096.018.11.055.022.03.022.07 0 .121L7.18 8.86h1.342l.21-2.013c.014-.103.065-.154.153-.154h1.2c.102 0 .153.051.153.154V8.86h.584c.102 0 .154.048.154.143v1.166c0 .095-.052.143-.155.143h-.582v1.034c0 .103-.052.154-.155.154H8.633Z" fill="#fff"/></svg>