<svg width="16" height="16" viewBox="0 0 16 16" fill="none" xmlns="http://www.w3.org/2000/svg">
<g clip-path="url(#clip0_4115_26)">
<path d="M5 1.73205C6.4641 0.886751 7.19615 0.464102 8 0.464102C8.80385 0.464102 9.5359 0.886751 11 1.73205L11.9282 2.26795C13.3923 3.11325 14.1244 3.5359 14.5263 4.23205C14.9282 4.9282 14.9282 5.7735 14.9282 7.4641V8.5359C14.9282 10.2265 14.9282 11.0718 14.5263 11.7679C14.1244 12.4641 13.3923 12.8868 11.9282 13.7321L11 14.2679C9.5359 15.1132 8.80385 15.5359 8 15.5359C7.19615 15.5359 6.4641 15.1132 5 14.2679L4.0718 13.7321C2.6077 12.8868 1.87564 12.4641 1.47372 11.7679C1.0718 11.0718 1.0718 10.2265 1.0718 8.5359V7.4641C1.0718 5.7735 1.0718 4.9282 1.47372 4.23205C1.87564 3.5359 2.6077 3.11325 4.0718 2.26795L5 1.73205Z" fill="#8BA2B7"/>
<path d="M5.61816 12.25C5.51549 12.25 5.46416 12.1987 5.46416 12.096V11.117C5.46416 10.7723 5.52282 10.468 5.64016 10.204C5.76482 9.93267 5.92616 9.69067 6.12416 9.478C6.32216 9.26533 6.53849 9.07467 6.77316 8.906C7.01516 8.73733 7.25716 8.57967 7.49916 8.433C7.74116 8.28633 7.96116 8.14333 8.15916 8.004C8.35716 7.85733 8.51482 7.71067 8.63216 7.564C8.75682 7.41733 8.81916 7.25233 8.81916 7.069V6.926C8.81916 6.73533 8.75682 6.596 8.63216 6.508C8.50749 6.41267 8.30582 6.365 8.02716 6.365C7.74849 6.365 7.54316 6.42367 7.41116 6.541C7.27916 6.65833 7.21682 6.83433 7.22416 7.069C7.23149 7.16433 7.18382 7.212 7.08116 7.212H5.77216C5.68416 7.212 5.63282 7.16433 5.61816 7.069C5.58882 6.59233 5.67316 6.19633 5.87116 5.881C6.06916 5.55833 6.35882 5.32 6.74016 5.166C7.12149 5.00467 7.57616 4.924 8.10416 4.924C8.90349 4.924 9.50849 5.08533 9.91916 5.408C10.3298 5.73067 10.5352 6.22933 10.5352 6.904C10.5352 7.24133 10.4765 7.53833 10.3592 7.795C10.2418 8.05167 10.0878 8.279 9.89716 8.477C9.71382 8.675 9.50849 8.851 9.28116 9.005C9.06116 9.159 8.83749 9.30567 8.61016 9.445C8.39016 9.577 8.18482 9.71267 7.99416 9.852C7.81082 9.984 7.66049 10.127 7.54316 10.281C7.43316 10.4277 7.37816 10.5963 7.37816 10.787H10.3592C10.4545 10.787 10.5022 10.8383 10.5022 10.941V12.096C10.5022 12.1987 10.4545 12.25 10.3592 12.25H5.61816Z" fill="black" fill-opacity="0.3"/>
<path d="M5.61816 11.25C5.51549 11.25 5.46416 11.1987 5.46416 11.096V10.117C5.46416 9.77233 5.52282 9.468 5.64016 9.204C5.76482 8.93267 5.92616 8.69067 6.12416 8.478C6.32216 8.26533 6.53849 8.07467 6.77316 7.906C7.01516 7.73733 7.25716 7.57967 7.49916 7.433C7.74116 7.28633 7.96116 7.14333 8.15916 7.004C8.35716 6.85733 8.51482 6.71067 8.63216 6.564C8.75682 6.41733 8.81916 6.25233 8.81916 6.069V5.926C8.81916 5.73533 8.75682 5.596 8.63216 5.508C8.50749 5.41267 8.30582 5.365 8.02716 5.365C7.74849 5.365 7.54316 5.42367 7.41116 5.541C7.27916 5.65833 7.21682 5.83433 7.22416 6.069C7.23149 6.16433 7.18382 6.212 7.08116 6.212H5.77216C5.68416 6.212 5.63282 6.16433 5.61816 6.069C5.58882 5.59233 5.67316 5.19633 5.87116 4.881C6.06916 4.55833 6.35882 4.32 6.74016 4.166C7.12149 4.00467 7.57616 3.924 8.10416 3.924C8.90349 3.924 9.50849 4.08533 9.91916 4.408C10.3298 4.73067 10.5352 5.22933 10.5352 5.904C10.5352 6.24133 10.4765 6.53833 10.3592 6.795C10.2418 7.05167 10.0878 7.279 9.89716 7.477C9.71382 7.675 9.50849 7.851 9.28116 8.005C9.06116 8.159 8.83749 8.30567 8.61016 8.445C8.39016 8.577 8.18482 8.71267 7.99416 8.852C7.81082 8.984 7.66049 9.127 7.54316 9.281C7.43316 9.42767 7.37816 9.59633 7.37816 9.787H10.3592C10.4545 9.787 10.5022 9.83833 10.5022 9.941V11.096C10.5022 11.1987 10.4545 11.25 10.3592 11.25H5.61816Z" fill="white"/>
</g>
<defs>
<clipPath id="clip0_4115_26">
<rect width="16" height="16" fill="white"/>
</clipPath>
</defs>
</svg>
