<svg width="16" height="16" fill="none" xmlns="http://www.w3.org/2000/svg"><path d="M5 1.732C6.464.887 7.196.464 8 .464c.804 0 1.536.423 3 1.268l.928.536c1.464.845 2.196 1.268 2.598 1.964.402.696.402 1.542.402 3.232v1.072c0 1.69 0 2.536-.402 3.232-.402.696-1.134 1.119-2.598 1.964l-.928.536c-1.464.845-2.196 1.268-3 1.268-.804 0-1.536-.423-3-1.268l-.928-.536c-1.464-.845-2.196-1.268-2.598-1.964-.402-.696-.402-1.542-.402-3.232V7.464c0-1.69 0-2.536.402-3.232.402-.696 1.134-1.119 2.598-1.964L5 1.732Z" fill="#8BA2B7"/><path d="M5.618 12.5c-.103 0-.154-.051-.154-.154v-.979c0-.345.059-.649.176-.913a2.73 2.73 0 0 1 .484-.726 4.31 4.31 0 0 1 .65-.572c.241-.169.483-.326.725-.473.242-.147.462-.29.66-.429a2.53 2.53 0 0 0 .473-.44.744.744 0 0 0 .187-.495v-.143c0-.19-.062-.33-.187-.418-.125-.095-.326-.143-.605-.143-.279 0-.484.059-.616.176-.132.117-.194.293-.187.528.007.095-.04.143-.143.143H5.772c-.088 0-.14-.048-.154-.143-.03-.477.055-.873.253-1.188.198-.323.488-.561.87-.715.38-.161.835-.242 1.363-.242.8 0 1.404.161 1.815.484.41.323.616.821.616 1.496 0 .337-.059.634-.176.891a2.436 2.436 0 0 1-.462.682 3.548 3.548 0 0 1-.616.528c-.22.154-.444.3-.67.44a8.35 8.35 0 0 0-.617.407 2.11 2.11 0 0 0-.45.429.82.82 0 0 0-.166.506h2.981c.095 0 .143.051.143.154v1.155c0 .103-.048.154-.143.154H5.62Z" fill="#000" fill-opacity=".3"/><path d="M5.618 11.5c-.103 0-.154-.051-.154-.154v-.979c0-.345.059-.649.176-.913a2.73 2.73 0 0 1 .484-.726 4.31 4.31 0 0 1 .65-.572c.241-.169.483-.326.725-.473.242-.147.462-.29.66-.429a2.53 2.53 0 0 0 .473-.44.744.744 0 0 0 .187-.495v-.143c0-.19-.062-.33-.187-.418-.125-.095-.326-.143-.605-.143-.279 0-.484.059-.616.176-.132.117-.194.293-.187.528.007.095-.04.143-.143.143H5.772c-.088 0-.14-.048-.154-.143-.03-.477.055-.873.253-1.188.198-.323.488-.561.87-.715.38-.161.835-.242 1.363-.242.8 0 1.404.161 1.815.484.41.323.616.821.616 1.496 0 .337-.059.634-.176.891a2.436 2.436 0 0 1-.462.682 3.548 3.548 0 0 1-.616.528c-.22.154-.444.3-.67.44a8.35 8.35 0 0 0-.617.407 2.11 2.11 0 0 0-.45.429.82.82 0 0 0-.166.506h2.981c.095 0 .143.051.143.154v1.155c0 .103-.048.154-.143.154H5.62Z" fill="#fff"/></svg>