<svg width="16" height="16" fill="none" xmlns="http://www.w3.org/2000/svg"><path d="M5 1.732C6.464.887 7.196.464 8 .464c.804 0 1.536.423 3 1.268l.928.536c1.464.845 2.196 1.268 2.598 1.964.402.696.402 1.542.402 3.232v1.072c0 1.69 0 2.536-.402 3.232-.402.696-1.134 1.119-2.598 1.964l-.928.536c-1.464.845-2.196 1.268-3 1.268-.804 0-1.536-.423-3-1.268l-.928-.536c-1.464-.845-2.196-1.268-2.598-1.964-.402-.696-.402-1.542-.402-3.232V7.464c0-1.69 0-2.536.402-3.232.402-.696 1.134-1.119 2.598-1.964L5 1.732Z" fill="#BBB"/><path d="M5.783 12.5c-.103 0-.154-.051-.154-.154v-1.155c0-.103.05-.154.154-.154h1.529V7.044l-1.452.451c-.103.037-.154-.004-.154-.121V6.252c0-.088.036-.147.11-.176l2.497-.803a.623.623 0 0 1 .198-.033h.363c.102 0 .154.048.154.143v5.654h1.408c.102 0 .154.051.154.154v1.155c0 .103-.052.154-.154.154H5.783Z" fill="#000" fill-opacity=".3"/><path d="M5.783 11.5c-.103 0-.154-.051-.154-.154v-1.155c0-.103.05-.154.154-.154h1.529V6.044l-1.452.451c-.103.037-.154-.004-.154-.121V5.252c0-.088.036-.147.11-.176l2.497-.803a.623.623 0 0 1 .198-.033h.363c.102 0 .154.048.154.143v5.654h1.408c.102 0 .154.051.154.154v1.155c0 .103-.052.154-.154.154H5.783Z" fill="#fff"/></svg>