<svg width="16" height="16" viewBox="0 0 16 16" fill="none" xmlns="http://www.w3.org/2000/svg">
<g clip-path="url(#clip0_4115_22)">
<path d="M5 1.73205C6.4641 0.886751 7.19615 0.464102 8 0.464102C8.80385 0.464102 9.5359 0.886751 11 1.73205L11.9282 2.26795C13.3923 3.11325 14.1244 3.5359 14.5263 4.23205C14.9282 4.9282 14.9282 5.7735 14.9282 7.4641V8.5359C14.9282 10.2265 14.9282 11.0718 14.5263 11.7679C14.1244 12.4641 13.3923 12.8868 11.9282 13.7321L11 14.2679C9.5359 15.1132 8.80385 15.5359 8 15.5359C7.19615 15.5359 6.4641 15.1132 5 14.2679L4.0718 13.7321C2.6077 12.8868 1.87564 12.4641 1.47372 11.7679C1.0718 11.0718 1.0718 10.2265 1.0718 8.5359V7.4641C1.0718 5.7735 1.0718 4.9282 1.47372 4.23205C1.87564 3.5359 2.6077 3.11325 4.0718 2.26795L5 1.73205Z" fill="#BBBBBB"/>
<path d="M5.7826 12.25C5.67993 12.25 5.6286 12.1987 5.6286 12.096V10.941C5.6286 10.8383 5.67993 10.787 5.7826 10.787H7.3116V6.794L5.8596 7.245C5.75693 7.28167 5.7056 7.24133 5.7056 7.124V6.002C5.7056 5.914 5.74226 5.85533 5.8156 5.826L8.3126 5.023C8.3786 5.001 8.4446 4.99 8.5106 4.99H8.8736C8.97626 4.99 9.0276 5.03767 9.0276 5.133V10.787H10.4356C10.5383 10.787 10.5896 10.8383 10.5896 10.941V12.096C10.5896 12.1987 10.5383 12.25 10.4356 12.25H5.7826Z" fill="black" fill-opacity="0.3"/>
<path d="M5.7826 11.25C5.67993 11.25 5.6286 11.1987 5.6286 11.096V9.941C5.6286 9.83833 5.67993 9.787 5.7826 9.787H7.3116V5.794L5.8596 6.245C5.75693 6.28167 5.7056 6.24133 5.7056 6.124V5.002C5.7056 4.914 5.74226 4.85533 5.8156 4.826L8.3126 4.023C8.3786 4.001 8.4446 3.99 8.5106 3.99H8.8736C8.97626 3.99 9.0276 4.03767 9.0276 4.133V9.787H10.4356C10.5383 9.787 10.5896 9.83833 10.5896 9.941V11.096C10.5896 11.1987 10.5383 11.25 10.4356 11.25H5.7826Z" fill="white"/>
</g>
<defs>
<clipPath id="clip0_4115_22">
<rect width="16" height="16" fill="white"/>
</clipPath>
</defs>
</svg>
