<svg width="16" height="16" fill="none" xmlns="http://www.w3.org/2000/svg"><path d="M5 1.732C6.464.887 7.196.464 8 .464c.804 0 1.536.423 3 1.268l.928.536c1.464.845 2.196 1.268 2.598 1.964.402.696.402 1.542.402 3.232v1.072c0 1.69 0 2.536-.402 3.232-.402.696-1.134 1.119-2.598 1.964l-.928.536c-1.464.845-2.196 1.268-3 1.268-.804 0-1.536-.423-3-1.268l-.928-.536c-1.464-.845-2.196-1.268-2.598-1.964-.402-.696-.402-1.542-.402-3.232V7.464c0-1.69 0-2.536.402-3.232.402-.696 1.134-1.119 2.598-1.964L5 1.732Z" fill="#8CCF62"/><path d="M7.908 12.621c-.931 0-1.598-.198-2.002-.594-.396-.403-.564-.931-.506-1.584.015-.103.066-.154.154-.154h1.31c.102 0 .153.048.153.143 0 .293.077.488.231.583.162.095.404.143.726.143.294 0 .514-.062.66-.187.154-.125.231-.312.231-.561v-.154c0-.484-.297-.726-.89-.726h-.716c-.102 0-.154-.051-.154-.154V8.32c0-.095.052-.143.154-.143h.54c.33 0 .568-.059.714-.176.147-.117.22-.3.22-.55v-.187c0-.227-.07-.396-.209-.506-.132-.11-.344-.165-.638-.165-.3 0-.52.059-.66.176-.132.11-.198.279-.198.506 0 .103-.051.154-.154.154H5.565c-.095 0-.143-.051-.143-.154-.007-.682.206-1.203.638-1.562.44-.36 1.086-.539 1.936-.539.836 0 1.456.165 1.86.495.403.323.604.788.604 1.397 0 .418-.088.774-.264 1.067a1.536 1.536 0 0 1-.748.627v.022c.374.103.657.297.847.583.198.286.297.642.297 1.067 0 .719-.227 1.265-.682 1.639-.454.367-1.122.55-2.002.55Z" fill="#000" fill-opacity=".3"/><path d="M7.908 11.621c-.931 0-1.598-.198-2.002-.594-.396-.403-.564-.931-.506-1.584.015-.103.066-.154.154-.154h1.31c.102 0 .153.048.153.143 0 .293.077.488.231.583.162.095.404.143.726.143.294 0 .514-.062.66-.187.154-.125.231-.312.231-.561v-.154c0-.484-.297-.726-.89-.726h-.716c-.102 0-.154-.051-.154-.154V7.32c0-.095.052-.143.154-.143h.54c.33 0 .568-.059.714-.176.147-.117.22-.3.22-.55v-.187c0-.227-.07-.396-.209-.506-.132-.11-.344-.165-.638-.165-.3 0-.52.059-.66.176-.132.11-.198.279-.198.506 0 .103-.051.154-.154.154H5.565c-.095 0-.143-.051-.143-.154-.007-.682.206-1.203.638-1.562.44-.36 1.086-.539 1.936-.539.836 0 1.456.165 1.86.495.403.323.604.788.604 1.397 0 .418-.088.774-.264 1.067a1.536 1.536 0 0 1-.748.627v.022c.374.103.657.297.847.583.198.286.297.642.297 1.067 0 .719-.227 1.265-.682 1.639-.454.367-1.122.55-2.002.55Z" fill="#fff"/></svg>