<svg width="16" height="16" viewBox="0 0 16 16" fill="none" xmlns="http://www.w3.org/2000/svg">
<g clip-path="url(#clip0_4115_30)">
<path d="M5 1.73205C6.4641 0.886751 7.19615 0.464102 8 0.464102C8.80385 0.464102 9.5359 0.886751 11 1.73205L11.9282 2.26795C13.3923 3.11325 14.1244 3.5359 14.5263 4.23205C14.9282 4.9282 14.9282 5.7735 14.9282 7.4641V8.5359C14.9282 10.2265 14.9282 11.0718 14.5263 11.7679C14.1244 12.4641 13.3923 12.8868 11.9282 13.7321L11 14.2679C9.5359 15.1132 8.80385 15.5359 8 15.5359C7.19615 15.5359 6.4641 15.1132 5 14.2679L4.0718 13.7321C2.6077 12.8868 1.87564 12.4641 1.47372 11.7679C1.0718 11.0718 1.0718 10.2265 1.0718 8.5359V7.4641C1.0718 5.7735 1.0718 4.9282 1.47372 4.23205C1.87564 3.5359 2.6077 3.11325 4.0718 2.26795L5 1.73205Z" fill="#8CCF62"/>
<path d="M7.90822 12.371C6.97689 12.371 6.30955 12.173 5.90622 11.777C5.51022 11.3737 5.34155 10.8457 5.40022 10.193C5.41489 10.0903 5.46622 10.039 5.55422 10.039H6.86322C6.96589 10.039 7.01722 10.0867 7.01722 10.182C7.01722 10.4753 7.09422 10.6697 7.24822 10.765C7.40955 10.8603 7.65155 10.908 7.97422 10.908C8.26755 10.908 8.48755 10.8457 8.63422 10.721C8.78822 10.5963 8.86522 10.4093 8.86522 10.16V10.006C8.86522 9.522 8.56822 9.28 7.97422 9.28H7.25922C7.15655 9.28 7.10522 9.22867 7.10522 9.126V8.07C7.10522 7.97467 7.15655 7.927 7.25922 7.927H7.79822C8.12822 7.927 8.36655 7.86833 8.51322 7.751C8.65989 7.63367 8.73322 7.45033 8.73322 7.201V7.014C8.73322 6.78667 8.66355 6.618 8.52422 6.508C8.39222 6.398 8.17955 6.343 7.88622 6.343C7.58555 6.343 7.36555 6.40167 7.22622 6.519C7.09422 6.629 7.02822 6.79767 7.02822 7.025C7.02822 7.12767 6.97689 7.179 6.87422 7.179H5.56522C5.46989 7.179 5.42222 7.12767 5.42222 7.025C5.41489 6.343 5.62755 5.82233 6.06022 5.463C6.50022 5.10367 7.14555 4.924 7.99622 4.924C8.83222 4.924 9.45189 5.089 9.85522 5.419C10.2586 5.74167 10.4602 6.20733 10.4602 6.816C10.4602 7.234 10.3722 7.58967 10.1962 7.883C10.0202 8.169 9.77089 8.378 9.44822 8.51V8.532C9.82222 8.63467 10.1046 8.829 10.2952 9.115C10.4932 9.401 10.5922 9.75667 10.5922 10.182C10.5922 10.9007 10.3649 11.447 9.91022 11.821C9.45555 12.1877 8.78822 12.371 7.90822 12.371Z" fill="black" fill-opacity="0.3"/>
<path d="M7.90822 11.371C6.97689 11.371 6.30955 11.173 5.90622 10.777C5.51022 10.3737 5.34155 9.84567 5.40022 9.193C5.41489 9.09033 5.46622 9.039 5.55422 9.039H6.86322C6.96589 9.039 7.01722 9.08667 7.01722 9.182C7.01722 9.47533 7.09422 9.66967 7.24822 9.765C7.40955 9.86033 7.65155 9.908 7.97422 9.908C8.26755 9.908 8.48755 9.84567 8.63422 9.721C8.78822 9.59633 8.86522 9.40933 8.86522 9.16V9.006C8.86522 8.522 8.56822 8.28 7.97422 8.28H7.25922C7.15655 8.28 7.10522 8.22867 7.10522 8.126V7.07C7.10522 6.97467 7.15655 6.927 7.25922 6.927H7.79822C8.12822 6.927 8.36655 6.86833 8.51322 6.751C8.65989 6.63367 8.73322 6.45033 8.73322 6.201V6.014C8.73322 5.78667 8.66355 5.618 8.52422 5.508C8.39222 5.398 8.17955 5.343 7.88622 5.343C7.58555 5.343 7.36555 5.40167 7.22622 5.519C7.09422 5.629 7.02822 5.79767 7.02822 6.025C7.02822 6.12767 6.97689 6.179 6.87422 6.179H5.56522C5.46989 6.179 5.42222 6.12767 5.42222 6.025C5.41489 5.343 5.62755 4.82233 6.06022 4.463C6.50022 4.10367 7.14555 3.924 7.99622 3.924C8.83222 3.924 9.45189 4.089 9.85522 4.419C10.2586 4.74167 10.4602 5.20733 10.4602 5.816C10.4602 6.234 10.3722 6.58967 10.1962 6.883C10.0202 7.169 9.77089 7.378 9.44822 7.51V7.532C9.82222 7.63467 10.1046 7.829 10.2952 8.115C10.4932 8.401 10.5922 8.75667 10.5922 9.182C10.5922 9.90067 10.3649 10.447 9.91022 10.821C9.45555 11.1877 8.78822 11.371 7.90822 11.371Z" fill="white"/>
</g>
<defs>
<clipPath id="clip0_4115_30">
<rect width="16" height="16" fill="white"/>
</clipPath>
</defs>
</svg>
